<svg xmlns="http://www.w3.org/2000/svg" viewBox="0 0 100 100">
  <rect width="100" height="100" rx="20" fill="#16a34a"/>
  <path d="M50 15c-8 12-25 20-25 35 0 12 10 20 22 20 2 0 3-1 3-3v-12c-6 0-10-4-10-10 0-8 10-15 10-25 0 10 10 17 10 25 0 6-4 10-10 10v12c0 2 1 3 3 3 12 0 22-8 22-20 0-15-17-23-25-35z" fill="white"/>
  <path d="M50 70v15c0 2-1.5 3-3 3h-4c-1.5 0-3-1-3-3v-15h10z" fill="white" opacity="0.9"/>
  <path d="M50 70v15c0 2 1.5 3 3 3h4c1.5 0 3-1 3-3v-15h-10z" fill="white" opacity="0.9"/>
</svg>
